<svg width="64" height="66" viewBox="0 0 64 66" fill="none" xmlns="http://www.w3.org/2000/svg">
<path d="M31.1943 10.5206C31.7076 10.2947 32.2924 10.2947 32.8057 10.5206L50.2529 18.1973C51.0599 18.5525 51.5391 19.3944 51.4326 20.2696L49.1572 38.9571C48.9456 40.6956 48.0895 42.2912 46.7588 43.4297L33.3008 54.9444C32.5523 55.5848 31.4487 55.5848 30.7002 54.9444L17.2412 43.4297C15.9105 42.2912 15.0544 40.6955 14.8428 38.9571L12.5674 20.2696C12.4609 19.3943 12.941 18.5524 13.748 18.1973L31.1943 10.5206Z" stroke="#33363F" stroke-width="2" stroke-linecap="round"/>
<path d="M24.0588 33L31.5633 40.7046C31.7871 40.9343 32.1662 40.897 32.3409 40.628L42.5883 24.847" stroke="#33363F" stroke-width="2" stroke-linecap="round"/>
</svg>
